<?xml version="1.0" encoding="UTF-8"?>
<svg width="80px" height="80px" viewBox="0 0 80 80" version="1.1" xmlns="http://www.w3.org/2000/svg" xmlns:xlink="http://www.w3.org/1999/xlink">
    <!-- Generator: Sketch 43.2 (39069) - http://www.bohemiancoding.com/sketch -->
    <title>Graffiti</title>
    <desc>Created with Sketch.</desc>
    <defs></defs>
    <g id="Page-1" stroke="none" stroke-width="1" fill="none" fill-rule="evenodd">
        <g id="Graffiti" fill-rule="nonzero" fill="#485566">
            <path d="M40.0012145,0 C17.944924,0 0,17.9447429 0,40.0008106 C0,62.0560687 17.944924,79.9991923 40.0012145,79.9991923 C62.0566952,79.9991923 80,62.0560687 80,40.0008106 C80,17.9447429 62.0566952,0 40.0012145,0 Z M66.6392738,63.4842643 L50.9637786,47.8089274 L48.1429829,51.2976432 L63.4849052,66.6402202 C57.2174599,72.1708347 48.9971561,75.5372957 40.0012145,75.5372957 C20.404619,75.5372957 4.46275137,59.5972082 4.46275137,40.0016203 C4.46275137,31.0049598 7.83005597,22.7839293 13.3615359,16.5165473 L34.2276513,37.3832617 L37.0500663,33.8953556 L16.5167141,13.361401 C22.7841593,7.82997692 31.0044632,4.46351595 40.0012145,4.46351595 C59.5961906,4.46351595 75.5380583,20.4052226 75.5380583,40.0016203 C75.5380583,48.9974711 72.1707537,57.2185016 66.6392738,63.4842643 Z M45.433918,25.75205 L36.1335506,25.382047 L37.0605916,21.7403102 L45.433918,25.75205 Z M47.4725986,22.5847592 L39.5105709,17.7666233 L42.0803773,15.0260099 L47.4725986,22.5847592 Z M50.5759597,20.3436904 L45.7998765,12.3558347 L49.3574472,11.1405731 L50.5759597,20.3436904 Z M56.6458521,27.6214965 C56.8879353,27.8206666 56.9259885,28.165571 56.7381514,28.4060325 L54.6848971,30.940189 C54.5691182,31.0745884 54.4079993,31.1466458 54.2468803,31.1466458 C54.1254339,31.1466458 54.0039875,31.1053545 53.9011628,31.0203428 L53.61293,30.7863584 L55.4192432,37.5832415 C55.4257203,37.6010535 55.4192432,37.6204847 55.4232914,37.6399159 C55.4313878,37.6860651 55.4330071,37.730595 55.4330071,37.7759345 C55.4330071,37.8277512 55.4297685,37.8795678 55.4184335,37.9297651 C55.4095275,37.9686276 55.3949539,38.0050612 55.3779514,38.043114 C55.3577103,38.094121 55.33585,38.1410798 55.3026546,38.187229 C55.2929389,38.2018024 55.2888907,38.2220432 55.2775557,38.2366167 L49.0675951,45.912763 L49.1517979,45.996965 L46.329383,49.4856808 L46.2451801,49.4014788 L34.554747,63.8494095 C34.4106306,64.0283388 34.1993138,64.1182082 33.9831392,64.1182082 C33.8187817,64.1182082 33.6528049,64.0647724 33.514356,63.9570909 L23.4245868,55.7830193 C23.0991104,55.5255555 23.0521511,55.0575866 23.3120465,54.7394002 L44.0340455,29.1347037 C44.0453805,29.1233688 44.0575251,29.1177014 44.0704794,29.1047472 C44.1101519,29.0634558 44.153063,29.0310704 44.2000223,28.9986851 C44.2315983,28.9776346 44.2631744,28.9549648 44.297989,28.9387721 C44.3473773,28.9144831 44.3991944,28.9023385 44.4550598,28.890194 C44.4939226,28.8820977 44.5319758,28.8731917 44.5716483,28.8707628 C44.5935087,28.8691435 44.615369,28.8578086 44.638039,28.8578086 L51.5531986,29.1217495 L51.371029,28.9760153 C51.130565,28.7776548 51.0973697,28.4303215 51.2900647,28.1930986 L53.3344129,25.6605613 C53.4469532,25.523733 53.6080721,25.4557237 53.7700007,25.4557237 C53.8930664,25.4557237 54.0161321,25.4945862 54.1157182,25.5755497 L56.6458521,27.6214965 Z" id="Shape"></path>
        </g>
    </g>
</svg>