<?xml version="1.0" encoding="UTF-8"?>
<svg width="80px" height="80px" viewBox="0 0 80 80" version="1.1" xmlns="http://www.w3.org/2000/svg" xmlns:xlink="http://www.w3.org/1999/xlink">
    <!-- Generator: Sketch 43.2 (39069) - http://www.bohemiancoding.com/sketch -->
    <title>Artboard</title>
    <desc>Created with Sketch.</desc>
    <defs></defs>
    <g id="Page-1" stroke="none" stroke-width="1" fill="none" fill-rule="evenodd">
        <g id="Artboard" fill-rule="nonzero" fill="#485566">
            <g id="noun_753" transform="translate(0.000000, 7.000000)">
                <polygon id="Shape" points="0 65.312 80 65.312 80 56.4368 72.6168 56.4368 71.112 60.868 57.7784 63.0896 52.2216 56.4224 0 56.4368"></polygon>
                <circle id="Oval" cx="51.1" cy="14.0712" r="4.1232"></circle>
                <path d="M70.1776,25.0792 L66.3464,9.8544 C65.6376,6.9424 63.6312,4.292 59.2816,3.7336 L51.3496,2.7528 L37.7864,1.076 L29.7136,0.0792 C25.3768,-0.4376 22.7864,1.6456 21.3704,4.2952 L13.948,18.1296 C11.676,18.1416 7.3976,20.2768 6.7904,25.2528 L4.5032,43.752 L9.9936,44.4304 L9.264,50.3352 C8.3496,57.6152 18.6632,58.8024 19.5504,51.6064 L20.2792,45.7024 L38.8232,47.9936 L57.3216,50.2808 L56.5928,56.1848 C55.7224,63.3832 66.0176,64.7424 66.9224,57.4632 L67.6528,51.5584 L73.144,52.2368 L75.4312,33.7376 C76.0288,28.7608 72.396,25.6464 70.1776,25.0792 Z M22.0336,29.6216 C21.7032,32.3216 19.3,34.2536 16.6776,33.9216 C14.0456,33.6032 12.188,31.1456 12.5304,28.4464 C12.8576,25.7264 15.2584,23.7928 17.8864,24.1408 C20.5136,24.444 22.372,26.904 22.0336,29.6216 Z M59.3504,23.6024 C58.9968,21.6136 57.688,19.9072 55.2864,19.6112 L46.1144,18.4736 C43.8648,18.1952 42.096,19.424 41.2432,21.364 L19.82,18.7168 L25.4784,7.7992 C26.1912,6.2384 27.1304,5.1752 29.0096,5.3784 L43.8184,7.2112 L43.8624,7.216 L58.7184,9.052 C60.564,9.3088 61.2168,10.568 61.552,12.2584 L64.3808,24.2248 L59.3504,23.6024 Z M69.0864,35.4392 C68.736,38.1368 66.3336,40.0656 63.7304,39.7376 C61.0792,39.4184 59.2176,36.9584 59.5376,34.2576 C59.888,31.5408 62.2912,29.6072 64.94,29.9576 C67.5472,30.2576 69.4056,32.7168 69.0864,35.4392 Z" id="Shape"></path>
            </g>
        </g>
    </g>
</svg>