<?xml version="1.0" encoding="UTF-8"?>
<svg width="76px" height="72px" viewBox="0 0 76 72" version="1.1" xmlns="http://www.w3.org/2000/svg" xmlns:xlink="http://www.w3.org/1999/xlink">
    <!-- Generator: Sketch 43.2 (39069) - http://www.bohemiancoding.com/sketch -->
    <title>upload-generic</title>
    <desc>Created with Sketch.</desc>
    <defs></defs>
    <g id="Page-1" stroke="none" stroke-width="1" fill="none" fill-rule="evenodd">
        <g id="upload-generic">
            <g id="Group-2" transform="translate(11.000000, 4.000000)">
                <g id="Group" stroke="#CBD1DF" stroke-width="3">
                    <g id="KML-Copy" transform="translate(27.000000, 34.000000) rotate(-360.000000) translate(-27.000000, -34.000000) ">
                        <g id="Page" transform="translate(-0.000000, 0.000000)">
                            <path d="M1.5,1.99786351 C1.5,1.71895733 1.71821063,1.5 1.99662892,1.5 L36.9154777,1.5 C37.6209683,1.5 38.7594938,1.97366877 39.2608767,2.47778663 L50.6246687,13.9035675 C51.1242224,14.4058462 51.6005213,15.5603211 51.6005213,16.2665086 L51.6005213,65.3656361 C51.6005213,65.6404875 51.3743923,65.866333 51.0998244,65.866333 L2.0006969,65.866333 C1.72687296,65.866333 1.5,65.6392412 1.5,65.3684695 L1.5,1.99786351 Z" id="Rectangle"></path>
                            <path d="M38.6700644,1.81054687 L51.6005213,14.9615592 L51.6005213,16.638937 L51.6005213,16.638937 C51.6005213,16.9079345 51.3781438,17.1293795 51.1026066,17.1293795 L36.2627626,17.1293795 C35.9885461,17.1293795 35.7648478,16.90577 35.7648478,16.6340711 L35.7648478,2.30585529 C35.7648478,2.03503217 35.990527,1.81054688 36.2688745,1.81054688 L38.6700644,1.81054687 Z" id="Rectangle-2"></path>
                        </g>
                    </g>
                </g>
                <path d="M22.0665625,41.0234375 C22.0665625,39.6640557 22.5353078,38.5156297 23.4728125,37.578125 C24.4103172,36.6406203 25.5353059,36.171875 26.8478125,36.171875 C28.2071943,36.171875 29.3556203,36.6406203 30.293125,37.578125 C31.2306297,38.5156297 31.699375,39.6640557 31.699375,41.0234375 C31.699375,42.3359441 31.2306297,43.4609328 30.293125,44.3984375 C29.3556203,45.3359422 28.2071943,45.8046875 26.8478125,45.8046875 C25.4884307,45.8046875 24.3517233,45.3476608 23.4376563,44.4335938 C22.5235892,43.5195267 22.0665625,42.3828193 22.0665625,41.0234375 Z M26.8478125,48.4765625 C28.9103228,48.4765625 30.6798364,47.7500073 32.1564063,46.296875 C33.6329761,44.8437427 34.37125,43.0859478 34.37125,41.0234375 C34.37125,38.9609272 33.6329761,37.1914136 32.1564063,35.7148438 C30.6798364,34.2382739 28.9103228,33.5 26.8478125,33.5 C24.7853022,33.5 23.0275073,34.2382739 21.574375,35.7148438 C20.1212427,37.1914136 19.3946875,38.9609272 19.3946875,41.0234375 C19.3946875,43.0859478 20.1212427,44.8437427 21.574375,46.296875 C23.0275073,47.7500073 24.7853022,48.4765625 26.8478125,48.4765625 Z M16.37125,34.9765625 L16.37125,30.4765625 L20.87125,30.4765625 L20.87125,25.9765625 L31.3478125,25.9765625 L34.09,29 L38.87125,29 C39.668129,29 40.371247,29.3046845 40.980625,29.9140625 C41.5900031,30.5234405 41.8946875,31.2265585 41.8946875,32.0234375 L41.8946875,50.0234375 C41.8946875,50.8203165 41.5900031,51.5117158 40.980625,52.0976562 C40.371247,52.6835967 39.668129,52.9765625 38.87125,52.9765625 L14.8946875,52.9765625 C14.0978085,52.9765625 13.3946906,52.6835967 12.7853125,52.0976562 C12.1759345,51.5117158 11.87125,50.8203165 11.87125,50.0234375 L11.87125,34.9765625 L16.37125,34.9765625 Z M11.87125,25.9765625 L11.87125,21.4765625 L14.8946875,21.4765625 L14.8946875,25.9765625 L19.3946875,25.9765625 L19.3946875,29 L14.8946875,29 L14.8946875,33.5 L11.87125,33.5 L11.87125,29 L7.37125,29 L7.37125,25.9765625 L11.87125,25.9765625 Z" id="add_a_photo" fill="#CAD1DE"></path>
            </g>
        </g>
    </g>
</svg>