<?xml version="1.0" encoding="UTF-8"?>
<svg width="76px" height="72px" viewBox="0 0 76 72" version="1.1" xmlns="http://www.w3.org/2000/svg" xmlns:xlink="http://www.w3.org/1999/xlink">
    <!-- Generator: Sketch 43.2 (39069) - http://www.bohemiancoding.com/sketch -->
    <title>upload-generic-success</title>
    <desc>Created with Sketch.</desc>
    <defs></defs>
    <g id="Page-1" stroke="none" stroke-width="1" fill="none" fill-rule="evenodd">
        <g id="upload-generic-success">
            <g id="Group-Copy" transform="translate(11.000000, 4.000000)" stroke="#CBD1DF" stroke-width="3">
                <g id="KML-Copy" transform="translate(27.000000, 34.000000) rotate(-360.000000) translate(-27.000000, -34.000000) ">
                    <g id="Page" transform="translate(-0.000000, 0.000000)">
                        <path d="M1.5,1.99786351 C1.5,1.71895733 1.71821063,1.5 1.99662892,1.5 L36.9154777,1.5 C37.6209683,1.5 38.7594938,1.97366877 39.2608767,2.47778663 L50.6246687,13.9035675 C51.1242224,14.4058462 51.6005213,15.5603211 51.6005213,16.2665086 L51.6005213,65.3656361 C51.6005213,65.6404875 51.3743923,65.866333 51.0998244,65.866333 L2.0006969,65.866333 C1.72687296,65.866333 1.5,65.6392412 1.5,65.3684695 L1.5,1.99786351 Z" id="Rectangle"></path>
                        <path d="M38.6700644,1.81054687 L51.6005213,14.9615592 L51.6005213,16.638937 L51.6005213,16.638937 C51.6005213,16.9079345 51.3781438,17.1293795 51.1026066,17.1293795 L36.2627626,17.1293795 C35.9885461,17.1293795 35.7648478,16.90577 35.7648478,16.6340711 L35.7648478,2.30585529 C35.7648478,2.03503217 35.990527,1.81054688 36.2688745,1.81054688 L38.6700644,1.81054687 Z" id="Rectangle-2"></path>
                    </g>
                </g>
            </g>
            <path d="M33.0665625,45.0234375 C33.0665625,43.6640557 33.5353078,42.5156297 34.4728125,41.578125 C35.4103172,40.6406203 36.5353059,40.171875 37.8478125,40.171875 C39.2071943,40.171875 40.3556203,40.6406203 41.293125,41.578125 C42.2306297,42.5156297 42.699375,43.6640557 42.699375,45.0234375 C42.699375,46.3359441 42.2306297,47.4609328 41.293125,48.3984375 C40.3556203,49.3359422 39.2071943,49.8046875 37.8478125,49.8046875 C36.4884307,49.8046875 35.3517233,49.3476608 34.4376563,48.4335938 C33.5235892,47.5195267 33.0665625,46.3828193 33.0665625,45.0234375 Z M37.8478125,52.4765625 C39.9103228,52.4765625 41.6798364,51.7500073 43.1564063,50.296875 C44.6329761,48.8437427 45.37125,47.0859478 45.37125,45.0234375 C45.37125,42.9609272 44.6329761,41.1914136 43.1564063,39.7148438 C41.6798364,38.2382739 39.9103228,37.5 37.8478125,37.5 C35.7853022,37.5 34.0275073,38.2382739 32.574375,39.7148438 C31.1212427,41.1914136 30.3946875,42.9609272 30.3946875,45.0234375 C30.3946875,47.0859478 31.1212427,48.8437427 32.574375,50.296875 C34.0275073,51.7500073 35.7853022,52.4765625 37.8478125,52.4765625 Z M27.37125,38.9765625 L27.37125,34.4765625 L31.87125,34.4765625 L31.87125,29.9765625 L42.3478125,29.9765625 L45.09,33 L49.87125,33 C50.668129,33 51.371247,33.3046845 51.980625,33.9140625 C52.5900031,34.5234405 52.8946875,35.2265585 52.8946875,36.0234375 L52.8946875,54.0234375 C52.8946875,54.8203165 52.5900031,55.5117158 51.980625,56.0976562 C51.371247,56.6835967 50.668129,56.9765625 49.87125,56.9765625 L25.8946875,56.9765625 C25.0978085,56.9765625 24.3946906,56.6835967 23.7853125,56.0976562 C23.1759345,55.5117158 22.87125,54.8203165 22.87125,54.0234375 L22.87125,38.9765625 L27.37125,38.9765625 Z M22.87125,29.9765625 L22.87125,25.4765625 L25.8946875,25.4765625 L25.8946875,29.9765625 L30.3946875,29.9765625 L30.3946875,33 L25.8946875,33 L25.8946875,37.5 L22.87125,37.5 L22.87125,33 L18.37125,33 L18.37125,29.9765625 L22.87125,29.9765625 Z" id="add_a_photo-copy" fill="#CAD1DE"></path>
            <g id="Group" transform="translate(38.000000, 1.000000)">
                <circle id="Oval-2" fill="#A4CE4E" cx="18.5" cy="18.5" r="18.5"></circle>
                <polygon id="check" fill="#FFFFFF" points="14.83 24.0625 28.955 9.9375 30.83 11.8125 14.83 27.8125 7.39250001 20.375 9.26750001 18.5"></polygon>
            </g>
        </g>
    </g>
</svg>